<?xml version="1.0" encoding="utf-8"?>
<!-- Generator: Adobe Illustrator 21.0.0, SVG Export Plug-In . SVG Version: 6.00 Build 0)  -->
<svg version="1.1" id="Layer_1" xmlns="http://www.w3.org/2000/svg" xmlns:xlink="http://www.w3.org/1999/xlink" x="0px" y="0px"
	 viewBox="0 0 187.5 269.3" style="enable-background:new 0 0 187.5 269.3;" xml:space="preserve">
<style type="text/css">
	.st0{fill:#FFFFFF;}
</style>
<g>
	<g>
		<g>
			<g>
				<path class="st0" d="M38.4,156.3c0,5.9-4.6,9.9-12.7,9.9H6.5v-35.4h17.9c7.8,0,12.4,3.7,12.4,9.5c0,3.1-1.7,6.7-4.8,7.9
					C36.1,149.1,38.4,152.6,38.4,156.3z M16.9,144.9h5.6c2.7,0,4.2-1.2,4.2-3.1c0-2-1.5-2.9-4.2-2.9h-5.6V144.9z M23.7,158
					c3.1,0,4.4-1.2,4.4-3.1c0-1.9-1.4-2.8-4.4-2.8h-6.8v5.9H23.7z"/>
				<path class="st0" d="M68.2,166.2H40.9v-35.4h10.5v26.3h16.8V166.2z"/>
				<path class="st0" d="M82.4,161.2l-1.8,5H69.3L84,130.6h10.3l14.7,35.6H97.8l-1.9-5H82.4z M89.1,142.6l-3.6,10h7.3L89.1,142.6z"
					/>
				<path class="st0" d="M133,151h10.8c-0.6,9.4-7.9,16-18.2,16c-11.2,0-19.1-7.9-19.1-18.5c0-10.6,7.9-18.5,19.1-18.5
					c10.3,0,17.5,6.6,18.2,16H133c-0.7-3.7-3.3-6.3-7.5-6.3c-5.1,0-8.3,3.9-8.3,8.7c0,4.8,3.2,8.7,8.3,8.7
					C129.7,157.3,132.3,154.7,133,151z"/>
				<path class="st0" d="M157.2,159.8v6.5h-10.5v-35.4h10.5v14.4l12.3-14.4h12.3l-13.1,15.4l14,20h-12.4l-8.6-11.6L157.2,159.8z"/>
			</g>
			<g>
				<path class="st0" d="M49.1,195.7c0,12.5-9.8,22.4-22.7,22.4s-22.7-9.9-22.7-22.4c0-12.5,9.8-22.4,22.7-22.4
					S49.1,183.2,49.1,195.7z M38.3,195.7c0-6.8-5-12.4-11.9-12.4c-6.9,0-11.9,5.7-11.9,12.4c0,6.8,5,12.4,11.9,12.4
					C33.3,208.2,38.3,202.5,38.3,195.7z"/>
				<path class="st0" d="M92,217.2h-8.2l-20.6-23.6v23.6H52.5v-42.9h8.1l20.7,24.2v-24.2H92V217.2z"/>
				<path class="st0" d="M121.2,204.3v12.9h-10.7v-12.9l-17-30h11.8l10.5,18.7l10.5-18.7h11.8L121.2,204.3z"/>
				<path class="st0" d="M161.2,204l-9.3,13.2h-12.3l14.3-21.2l-14.1-21.8h12.8l8.5,13.3l8.5-13.3h12.8l-14.1,21.8l14.3,21.2h-12.2
					L161.2,204z"/>
			</g>
		</g>
		<path class="st0" d="M70.9,19.1c-6.1,2.4-10.7,4.4-13.1,5.4c-6,10.6-7.7,20.7-8.3,26.3C53,42.6,59.7,29.5,70.9,19.1z M131.1,9.5
			C91.7,22.1,57.6,49.7,49.4,56.6c0.6,6.6,4.8,21.4,8.1,28.1c10.9-8.7,31.2-23.2,64.6-36.9C127.3,34.2,131.4,18.1,131.1,9.5z
			 M127.6,5.5c-4.6-0.4-9-0.6-13.3-0.6c-13.1,3.3-26,7.6-36.3,11.4c-15.5,12.5-25,30.1-28.7,38.1c7.8-6.9,40.7-35,79.3-48.7
			C128.1,5.5,127.6,5.5,127.6,5.5z M58.5,86.4c33.4,1.1,57.6-5.5,65.5-8c4.3-9.8,7.2-20.7,9.2-30c-39.3,13.3-62.9,28.6-75,37.7
			C58.3,86.2,58.4,86.3,58.5,86.4z M59.4,87.7c5,6.5,12,7.9,14.7,7.6c11.9-1.6,23.3-5.1,32.2-8.5C95,88.3,77.8,89.6,59.4,87.7z
			 M135.6,14.1c-0.7-2.2-1.6-3.8-2.5-5c1.2,7.6-1.8,23.3-5.8,36.7c2.3-0.9,4.6-1.8,7-2.7c1.8-9.4,2.4-16.1,2.4-16.1
			S137.8,21.3,135.6,14.1z M69.6,9.5c-4.2,4-7.5,8.2-10.2,12.5c6.6-3.3,22.1-10.6,40.3-16.7C81.8,6.4,69.6,9.5,69.6,9.5z"/>
	</g>
	<g>
		<path class="st0" d="M9,263.8H6.3v-26.4H9V263.8z"/>
		<path class="st0" d="M31.3,253.5v10.3h-2.6v-10.2c0-3.7-2.2-5.9-5.5-5.9c-2.3,0-4.6,1.2-6.2,3.3v12.7h-2.6v-17.9h2.6v2.1
			c1.7-1.7,4-2.7,6.6-2.7C28.2,245.3,31.3,248.5,31.3,253.5z"/>
		<path class="st0" d="M47.2,263.8c-1.6,0.5-2.7,0.6-3.9,0.6c-4.1,0-6.2-2.4-6.2-7v-9.2h-4.8v-2.3h4.8v-6.6h2.6v6.6h6.8v2.3h-6.8
			v9.2c0,3.3,1.3,4.6,4,4.6c0.9,0,2.1-0.2,3-0.5L47.2,263.8z"/>
		<path class="st0" d="M66.2,255.9l-0.2-0.1v0.1H50.8c0.4,3.4,2.8,6.1,6.7,6.1c2.5,0,4.4-1,5.2-2.8h2.9c-1,3.1-4.2,5-8.1,5
			c-5.5,0-9.3-4.2-9.3-9.5c0-5.3,3.8-9.4,9.3-9.4c5.1,0,8.7,4,8.7,9.4C66.2,255.2,66.2,255.6,66.2,255.9z M50.8,253.9h12.7
			c-0.3-3.6-2.6-6.1-6.1-6.1C53.6,247.7,51.2,250.5,50.8,253.9z"/>
		<path class="st0" d="M72.5,249c1.7-2.3,4.1-3.6,7-3.6v2.5c-2.9,0.1-5.4,1.6-7,4.2v11.7h-2.6v-17.9h2.6V249z"/>
		<path class="st0" d="M99,263.8h-2.6v-2c-1.6,1.6-3.8,2.5-6.5,2.5c-5.1,0-9.3-4.2-9.3-9.5c0-5.2,4.2-9.4,9.3-9.4
			c2.7,0,4.9,0.9,6.5,2.5v-2H99V263.8z M96.4,258.7V251c-1.5-2.2-3.7-3.3-6.1-3.3c-4,0-6.9,3.3-6.9,7.1c0,3.9,3,7.1,6.9,7.1
			C92.7,262,94.8,260.9,96.4,258.7z"/>
		<path class="st0" d="M117.9,257.9h2.8c-0.7,3.8-4.1,6.5-8.4,6.5c-5.4,0-9.4-4.2-9.4-9.5c0-5.3,3.9-9.4,9.4-9.4
			c4.3,0,7.7,2.6,8.4,6.5h-2.8c-0.6-2.4-2.8-4-5.7-4c-4,0-6.7,3.1-6.7,7c0,3.9,2.6,7,6.7,7C115.2,261.9,117.3,260.3,117.9,257.9z"/>
		<path class="st0" d="M136.3,263.8c-1.6,0.5-2.7,0.6-3.9,0.6c-4.1,0-6.2-2.4-6.2-7v-9.2h-4.8v-2.3h4.8v-6.6h2.6v6.6h6.8v2.3h-6.8
			v9.2c0,3.3,1.3,4.6,4,4.6c0.9,0,2.1-0.2,3-0.5L136.3,263.8z"/>
		<path class="st0" d="M139.8,239.1c0-1,0.8-1.8,1.8-1.8c1,0,1.9,0.8,1.9,1.8c0,1-0.8,1.8-1.9,1.8
			C140.6,240.9,139.8,240.2,139.8,239.1z M142.9,263.8h-2.6v-17.9h2.6V263.8z"/>
		<path class="st0" d="M156.8,263.8h-2.4l-8.5-17.9h2.8l6.9,14.6l6.9-14.6h2.9L156.8,263.8z"/>
		<path class="st0" d="M183.8,255.9l-0.2-0.1v0.1h-15.2c0.4,3.4,2.8,6.1,6.7,6.1c2.5,0,4.4-1,5.2-2.8h2.9c-1,3.1-4.2,5-8.1,5
			c-5.5,0-9.3-4.2-9.3-9.5c0-5.3,3.8-9.4,9.3-9.4c5.1,0,8.7,4,8.7,9.4C183.8,255.2,183.8,255.6,183.8,255.9z M168.4,253.9h12.7
			c-0.3-3.6-2.6-6.1-6.1-6.1C171.2,247.7,168.8,250.5,168.4,253.9z"/>
	</g>
</g>
</svg>
