<svg width="72" height="72" viewBox="0 0 72 72" fill="none" xmlns="http://www.w3.org/2000/svg">
<path d="M56.9895 45.9352C55.9523 45.1919 54.5144 45.4397 53.7719 46.4778C53.0293 47.516 53.2768 48.9552 54.314 49.6984C54.8562 50.0877 55.1862 50.7248 55.1862 51.3972C55.1862 52.5415 54.2551 53.4735 53.1118 53.4735C51.9686 53.4735 51.0375 52.5415 51.0375 51.3972V45.3099C51.0375 44.8026 51.285 44.3426 51.7093 44.0594L51.7211 44.0476C51.8389 43.965 51.945 43.8943 52.0511 43.8235H52.0629C52.1689 43.7527 52.2632 43.6937 52.3457 43.6347L52.3575 43.6229C52.8054 43.3162 53.0411 43.1275 53.0411 43.1275C53.0411 43.1275 63.2008 37.512 53.5008 24.5116C48.0673 17.2328 41.4671 9.0574 38.2966 5.15256C37.7662 4.50372 36.953 4.09082 36.0454 4.09082C35.1379 4.09082 34.3364 4.50372 33.7943 5.15256C30.6238 9.04561 24.0235 17.2328 18.5783 24.5116C8.8665 37.512 19.038 43.1275 19.038 43.1275C19.038 43.1275 19.533 43.505 20.3934 44.0712C20.7941 44.3544 21.0416 44.8144 21.0416 45.2981V51.3854C21.0416 52.5297 20.1105 53.4617 18.9673 53.4617C17.824 53.4617 16.8929 52.5297 16.8929 51.3854C16.8929 50.713 17.2229 50.076 17.7651 49.6866C18.8023 48.9434 19.0498 47.5042 18.3072 46.466C17.5647 45.4279 16.1268 45.1801 15.0896 45.9234C13.3335 47.1739 12.2727 49.2148 12.2727 51.3854C12.2727 55.0779 15.2782 58.0744 18.9555 58.0744C22.6328 58.0744 25.6382 55.0779 25.6382 51.3854V46.8789C25.6382 45.8172 26.4986 44.956 27.5594 44.956C28.6201 44.956 29.4805 45.8172 29.4805 46.8789V59.2659V62.0264C29.4805 63.1707 28.5494 64.1027 27.4062 64.1027C26.2629 64.1027 25.3318 63.1707 25.3318 62.0264C25.3318 60.7523 24.2946 59.7142 23.0217 59.7142C21.7488 59.7142 20.7116 60.7523 20.7116 62.0264C20.7116 65.7189 23.7171 68.7154 27.3944 68.7154C31.0717 68.7154 34.0771 65.7071 34.0771 62.0264V60.2333V49.1322C34.0771 48.0704 34.9375 47.2093 35.9983 47.2093C37.0591 47.2093 37.9194 48.0704 37.9194 49.1322V60.2333V62.0382C37.9194 65.7307 40.9249 68.7272 44.6022 68.7272C48.2795 68.7272 51.285 65.7189 51.285 62.0382C51.285 60.7641 50.2478 59.726 48.9749 59.726C47.702 59.726 46.6648 60.7641 46.6648 62.0382C46.6648 63.1825 45.7337 64.1145 44.5904 64.1145C43.4472 64.1145 42.5161 63.1825 42.5161 62.0382V59.2777V46.8907C42.5161 45.829 43.3764 44.9678 44.4372 44.9678C45.498 44.9678 46.3584 45.829 46.3584 46.8907V46.9851V51.3854C46.3584 55.0779 49.3638 58.0744 53.0411 58.0744C56.7184 58.0744 59.7239 55.0661 59.7239 51.3854C59.7946 49.2266 58.7456 47.1857 56.9895 45.9352Z" fill="#A50C29"/>
<path d="M56.9895 45.117C55.9523 44.3738 54.5144 44.6216 53.7719 45.6597C53.0293 46.6979 53.2768 48.1371 54.314 48.8803C54.8562 49.2696 55.1862 49.9067 55.1862 50.5791C55.1862 51.7234 54.2551 52.6554 53.1118 52.6554C51.9686 52.6554 51.0375 51.7234 51.0375 50.5791V44.4918C51.0375 43.9845 51.285 43.5244 51.7093 43.2413L51.7211 43.2295C51.8389 43.1469 51.945 43.0761 52.0511 43.0054H52.0629C52.1689 42.9346 52.2632 42.8756 52.3457 42.8166L52.3575 42.8048C52.8054 42.4981 53.0411 42.3093 53.0411 42.3093C53.0411 42.3093 63.2008 36.6939 53.5008 23.6935C48.0673 16.4147 41.4671 8.23929 38.2966 4.33444C37.7662 3.6856 36.953 3.27271 36.0454 3.27271C35.1379 3.27271 34.3364 3.6856 33.7943 4.33444C30.6238 8.22749 24.0235 16.4147 18.5783 23.6935C8.8665 36.6939 19.038 42.3093 19.038 42.3093C19.038 42.3093 19.533 42.6868 20.3934 43.2531C20.7941 43.5362 21.0416 43.9963 21.0416 44.48V50.5673C21.0416 51.7116 20.1105 52.6436 18.9673 52.6436C17.824 52.6436 16.8929 51.7116 16.8929 50.5673C16.8929 49.8949 17.2229 49.2578 17.7651 48.8685C18.8023 48.1253 19.0498 46.6861 18.3072 45.6479C17.5647 44.6098 16.1268 44.362 15.0896 45.1053C13.3335 46.3557 12.2727 48.3966 12.2727 50.5673C12.2727 54.2598 15.2782 57.2563 18.9555 57.2563C22.6328 57.2563 25.6382 54.2598 25.6382 50.5673V46.0608C25.6382 44.9991 26.4986 44.1379 27.5594 44.1379C28.6201 44.1379 29.4805 44.9991 29.4805 46.0608V58.4478V61.2083C29.4805 62.3526 28.5494 63.2846 27.4062 63.2846C26.2629 63.2846 25.3318 62.3526 25.3318 61.2083C25.3318 59.9342 24.2946 58.8961 23.0217 58.8961C21.7488 58.8961 20.7116 59.9342 20.7116 61.2083C20.7116 64.9008 23.7171 67.8973 27.3944 67.8973C31.0717 67.8973 34.0771 64.889 34.0771 61.2083V59.4151V48.3141C34.0771 47.2523 34.9375 46.3911 35.9983 46.3911C37.0591 46.3911 37.9194 47.2523 37.9194 48.3141V59.4151V61.2201C37.9194 64.9126 40.9249 67.9091 44.6022 67.9091C48.2795 67.9091 51.285 64.9008 51.285 61.2201C51.285 59.946 50.2478 58.9079 48.9749 58.9079C47.702 58.9079 46.6648 59.946 46.6648 61.2201C46.6648 62.3644 45.7337 63.2964 44.5904 63.2964C43.4472 63.2964 42.5161 62.3644 42.5161 61.2201V58.4596V46.0726C42.5161 45.0109 43.3764 44.1497 44.4372 44.1497C45.498 44.1497 46.3584 45.0109 46.3584 46.0726V46.167V50.5673C46.3584 54.2598 49.3638 57.2563 53.0411 57.2563C56.7184 57.2563 59.7239 54.248 59.7239 50.5673C59.7946 48.4084 58.7456 46.3675 56.9895 45.117Z" fill="url(#paint0_linear_718_2733)"/>
<path d="M49.6791 26.4568C49.9859 26.743 49.9859 27.2583 49.6791 27.5445C47.9961 29.1148 42.6917 33.5455 36.4086 33.5455C30.1255 33.5455 24.8222 29.116 23.1393 27.5445C22.8325 27.2583 22.8325 26.7418 23.1393 26.4556C24.8222 24.8841 30.1267 20.4546 36.4086 20.4546C42.6905 20.4546 47.9961 24.8853 49.6791 26.4556V26.4568Z" fill="white"/>
<mask id="mask0_718_2733" style="mask-type:luminance" maskUnits="userSpaceOnUse" x="22" y="20" width="29" height="14">
<path d="M50.2361 26.7204C50.2361 26.7204 43.9589 33.0989 36.2144 33.0989C28.4698 33.0989 22.1926 26.7204 22.1926 26.7204C22.1926 26.7204 28.4698 20.3418 36.2144 20.3418C43.9589 20.3418 50.2361 26.7204 50.2361 26.7204Z" fill="white"/>
</mask>
<g mask="url(#mask0_718_2733)">
<path d="M36.2545 31.2368C40.3026 31.2368 43.5842 28.038 43.5842 24.0922C43.5842 20.1463 40.3026 16.9475 36.2545 16.9475C32.2064 16.9475 28.9248 20.1463 28.9248 24.0922C28.9248 28.038 32.2064 31.2368 36.2545 31.2368Z" fill="#F0004B"/>
<path d="M36.2546 28.9963C39.0333 28.9963 41.286 26.8006 41.286 24.0921C41.286 21.3836 39.0333 19.188 36.2546 19.188C33.4758 19.188 31.2231 21.3836 31.2231 24.0921C31.2231 26.8006 33.4758 28.9963 36.2546 28.9963Z" fill="#1A1A1A"/>
</g>
<defs>
<linearGradient id="paint0_linear_718_2733" x1="35.9995" y1="60.2374" x2="35.9995" y2="25.3734" gradientUnits="userSpaceOnUse">
<stop stop-color="#B91D36"/>
<stop offset="1" stop-color="#F0004B"/>
</linearGradient>
</defs>
</svg>
